<?xml version="1.0" encoding="UTF-8"?>
<svg id="INFO" xmlns="http://www.w3.org/2000/svg" viewBox="0 0 30.37 27.34">
  <defs>
    <style>
      .cls-1 {
        fill: #fad533;
      }
    </style>
  </defs>
  <path class="cls-1" d="M15.19,7.6c-4.19,0-7.59,3.4-7.59,7.59s3.4,7.59,7.59,7.59,7.59-3.4,7.59-7.59-3.4-7.59-7.59-7.59ZM15.19,19.74c-2.52,0-4.56-2.04-4.56-4.56s2.04-4.56,4.56-4.56,4.56,2.04,4.56,4.56-2.04,4.56-4.56,4.56ZM27.33,3.04h-4.79l-2.8-3.04h-9.11s-2.79,3.04-2.79,3.04H3.04c-1.67,0-3.04,1.37-3.04,3.04v18.22c0,1.67,1.37,3.04,3.04,3.04h24.3c1.67,0,3.04-1.37,3.04-3.04V6.08c0-1.67-1.37-3.04-3.04-3.04ZM27.33,24.3H3.04V6.08h6.14l2.79-3.03h6.44s2.8,3.03,2.8,3.03h6.13v18.22Z"/>
</svg>