<?xml version="1.0" encoding="UTF-8"?>
<svg id="INFO" xmlns="http://www.w3.org/2000/svg" viewBox="0 0 28.27 28.27">
  <defs>
    <style>
      .cls-1 {
        fill: #e60060;
      }
    </style>
  </defs>
  <path class="cls-1" d="M14.13,0C6.33,0,0,6.33,0,14.13s6.33,14.14,14.13,14.14c1.91,0,3.74-.39,5.41-1.08.29-.12.55-.29.76-.51.92-.92.92-2.41,0-3.33l-1.66-1.66c-.43-.43-.69-1.02-.69-1.67,0-1.3,1.06-2.36,2.36-2.36h5.6c1.3,0,2.36-1.06,2.36-2.36v-1.18c0-7.81-6.33-14.13-14.13-14.13ZM25.91,15.31h-5.6c-2.6,0-4.71,2.11-4.71,4.71,0,1.26.49,2.44,1.38,3.33l1.66,1.66c-1.44.6-2.95.9-4.51.9-6.49,0-11.78-5.28-11.78-11.78S7.64,2.36,14.13,2.36s11.78,5.28,11.78,11.78v1.18Z"/>
  <path class="cls-1" d="M14.13,4.71c1.3,0,2.36,1.05,2.36,2.36s-1.05,2.36-2.36,2.36-2.36-1.05-2.36-2.36,1.05-2.36,2.36-2.36Z"/>
  <path class="cls-1" d="M6.84,15.63c1.13-.65,2.57-.27,3.22.86.65,1.13.26,2.57-.86,3.22-1.13.65-2.57.26-3.22-.86-.65-1.13-.26-2.57.86-3.22Z"/>
  <path class="cls-1" d="M20.25,8.24c1.3,0,2.36,1.06,2.36,2.36s-1.06,2.36-2.36,2.36-2.36-1.06-2.36-2.36,1.05-2.36,2.36-2.36Z"/>
  <path class="cls-1" d="M6.84,12.64c-1.13-.65-1.51-2.09-.86-3.22.65-1.13,2.09-1.51,3.22-.86,1.13.65,1.51,2.09.86,3.22-.65,1.13-2.09,1.51-3.22.86Z"/>
</svg>