<?xml version="1.0" encoding="UTF-8"?>
<svg id="INFO" xmlns="http://www.w3.org/2000/svg" viewBox="0 0 24.42 24.42">
  <defs>
    <style>
      .cls-1 {
        fill: #ae38d6;
      }
    </style>
  </defs>
  <path class="cls-1" d="M15.59,4.41s-.02-.02-.02-.02c-.01,0-.02-.02-.04-.03,0,0-.01-.01-.02-.02-.01-.01-.03-.02-.05-.03,0,0-.01,0-.02-.01-.02-.01-.04-.02-.06-.03,0,0,0,0,0,0-.02,0-.05-.02-.07-.03L.92.03C.67-.04.4.02.21.21S-.04.67.03.92l4.22,14.39s.02.05.03.07c0,0,0,0,0,0,0,.02.02.04.03.06,0,0,0,.01.01.02,0,.02.02.03.03.05,0,0,.01.01.02.02,0,.01.02.02.03.04,0,0,.01.02.02.02,0,0,.01.01.02.02,0,0,0,0,.01,0,0,0,.02.02.03.02.01,0,.02.02.03.03,0,0,.02.01.02.02.01,0,.03.02.04.03,0,0,.02,0,.02.01.01,0,.03.02.05.02,0,0,0,0,.01,0l6.69,3.02c-.07.22-.11.45-.11.69,0,.58.22,1.12.63,1.53.66.66,1.65.8,2.45.42l2.78,2.78c.28.28.74.28,1.02,0l6.1-6.1c.28-.28.28-.74,0-1.02l-2.78-2.78c.14-.29.21-.6.21-.93,0-.58-.22-1.12-.63-1.53-.6-.6-1.46-.77-2.22-.52l-3.03-6.69s0,0,0-.01c0-.02-.01-.03-.02-.05,0,0,0-.02-.01-.02,0-.01-.02-.03-.03-.04,0,0-.01-.02-.02-.02,0-.01-.02-.02-.03-.03,0,0-.01-.02-.02-.03,0,0,0,0,0-.01,0,0-.01-.01-.02-.02ZM9.51,9.51c.28-.28.74-.28,1.02,0s.28.74,0,1.02-.74.28-1.02,0-.28-.74,0-1.02ZM22.68,17.6l-5.08,5.08-2.19-2.19,5.08-5.08,2.19,2.19ZM20.2,13.38c0,.19-.07.37-.21.51l-6.1,6.1c-.28.28-.74.28-1.02,0-.14-.14-.21-.32-.21-.51,0-.19.07-.37.21-.51l6.1-6.1s0,0,0,0c0,0,0,0,0,0,.28-.28.74-.28,1.01,0,.14.14.21.32.21.51ZM17.6,12.2l-5.4,5.4-6.02-2.72,1.3-1.3c.28-.28.28-.74,0-1.02s-.74-.28-1.02,0l-1.18,1.18L2.2,3.22l5.87,5.87c-.38.8-.24,1.79.42,2.45.84.84,2.21.84,3.05,0s.84-2.21,0-3.05c-.66-.66-1.65-.8-2.45-.42L3.22,2.2l10.52,3.09-1.18,1.18c-.28.28-.28.74,0,1.02s.74.28,1.02,0l1.3-1.3,2.72,6.02Z"/>
</svg>