<?xml version="1.0" encoding="UTF-8"?>
<svg id="INFO" xmlns="http://www.w3.org/2000/svg" viewBox="0 0 26.19 25.77">
  <defs>
    <style>
      .cls-1 {
        fill: #e07817;
      }
    </style>
  </defs>
  <path class="cls-1" d="M26.16,19.68h.02V0s0,0,0,0h0s-.02,0-.02,0L7.17,2.56h0v15.5c-.75-.24-1.6-.34-2.48-.25C1.89,18.08-.2,20.07.01,22.26c.21,2.19,2.65,3.75,5.44,3.47,2.79-.27,4.88-2.27,4.67-4.46,0-.04-.01-.07-.02-.11h.02V7.72l13.09-1.92v10.77c-.75-.24-1.6-.34-2.48-.25-2.79.27-4.88,2.27-4.67,4.46.21,2.19,2.65,3.75,5.44,3.47,2.79-.27,4.88-2.27,4.67-4.46,0-.04-.01-.07-.02-.11Z"/>
</svg>