<?xml version="1.0" encoding="UTF-8"?>
<svg id="INFO" xmlns="http://www.w3.org/2000/svg" viewBox="0 0 28.37 31.21">
  <defs>
    <style>
      .cls-1 {
        fill: #5db200;
      }
    </style>
  </defs>
  <path class="cls-1" d="M13.48.19L.72,7.44c-.44.25-.72.72-.72,1.23v13.59c0,.5.27.97.7,1.22l12.77,7.53c.44.26,1,.26,1.44,0l12.77-7.53c.43-.26.7-.72.7-1.22v-13.94c0-.52-.29-1-.74-1.25L14.86.17c-.43-.23-.95-.23-1.38.01ZM15.6,27.3v-3.41c0-.78-.64-1.42-1.42-1.42h0c-.78,0-1.42.64-1.42,1.42v3.41l-9.23-5.44c-.43-.26-.7-.72-.7-1.22v-9.68l3.64,1.8c.7.35,1.55.06,1.9-.64h0c.35-.7.06-1.55-.64-1.9l-3.3-1.63L13.52,3.43c.43-.24.94-.25,1.38-.01l9.31,5.03-3.58,1.77c-.7.35-.99,1.2-.64,1.9h0c.35.7,1.2.99,1.9.64l3.64-1.8v9.68c0,.5-.27.97-.7,1.22l-9.23,5.44ZM18.44,15.6c0,2.35-1.91,4.26-4.26,4.26s-4.26-1.91-4.26-4.26,1.91-4.26,4.26-4.26,4.26,1.9,4.26,4.26Z"/>
</svg>