<?xml version="1.0" encoding="UTF-8"?>
<svg id="INFO" xmlns="http://www.w3.org/2000/svg" viewBox="0 0 30.28 26.52">
  <defs>
    <style>
      .cls-1 {
        fill: #5ac4d6;
      }
    </style>
  </defs>
  <polygon class="cls-1" points="30.04 10.4 21.57 6.05 20.92 5.72 20.92 6.45 20.92 9.01 20.92 9.29 21.17 9.41 25.63 11.63 21.17 13.85 20.92 13.97 20.92 14.25 20.92 16.81 20.92 17.54 21.57 17.21 30.04 12.86 30.28 12.74 30.28 12.47 30.28 10.79 30.28 10.52 30.04 10.4"/>
  <polygon class="cls-1" points=".24 13.47 0 13.59 0 13.87 0 15.54 0 15.81 .24 15.94 8.71 20.28 9.36 20.61 9.36 19.88 9.36 17.32 9.36 17.04 9.11 16.92 4.65 14.7 9.11 12.49 9.36 12.36 9.36 12.09 9.36 9.52 9.36 8.8 8.71 9.13 .24 13.47"/>
  <polygon class="cls-1" points="17.53 0 17.18 0 17.1 .34 10.79 25.96 10.65 26.52 11.22 26.52 13.59 26.52 13.94 26.52 14.02 26.18 20.36 .55 20.5 0 19.93 0 17.53 0"/>
</svg>